<mxfile host="app.diagrams.net" modified="2021-02-27T11:22:11.907Z" agent="5.0 (X11)" etag="DI0xaQAlu43LCtJA2b3G" version="14.4.3" type="github">
  <diagram id="QmHcQ-5RaDjDtTa8d-uc" name="Page-1">
    <mxGraphModel dx="1350" dy="804" grid="1" gridSize="10" guides="1" tooltips="1" connect="1" arrows="1" fold="1" page="1" pageScale="1" pageWidth="850" pageHeight="1100" math="0" shadow="0">
      <root>
        <mxCell id="0" />
        <mxCell id="1" parent="0" />
        <mxCell id="vts17N3uvWWT5DIk61w_-1" value="&lt;b&gt;Sleeping Machines&lt;/b&gt;" style="rounded=1;whiteSpace=wrap;html=1;" vertex="1" parent="1">
          <mxGeometry x="325" y="570" width="120" height="60" as="geometry" />
        </mxCell>
        <mxCell id="vts17N3uvWWT5DIk61w_-2" value="Analogue to Music" style="rounded=1;whiteSpace=wrap;html=1;" vertex="1" parent="1">
          <mxGeometry x="215" y="450" width="120" height="60" as="geometry" />
        </mxCell>
        <mxCell id="vts17N3uvWWT5DIk61w_-3" value="Brains of birds" style="rounded=1;whiteSpace=wrap;html=1;" vertex="1" parent="1">
          <mxGeometry x="265" y="330" width="120" height="60" as="geometry" />
        </mxCell>
        <mxCell id="vts17N3uvWWT5DIk61w_-4" value="Absolute tempo ear" style="rounded=1;whiteSpace=wrap;html=1;" vertex="1" parent="1">
          <mxGeometry x="145" y="210" width="120" height="60" as="geometry" />
        </mxCell>
        <mxCell id="vts17N3uvWWT5DIk61w_-5" value="Tracker music with causal interaction between billions of tracks" style="rounded=1;whiteSpace=wrap;html=1;" vertex="1" parent="1">
          <mxGeometry x="45" y="350" width="120" height="60" as="geometry" />
        </mxCell>
        <mxCell id="vts17N3uvWWT5DIk61w_-6" value="New computation theory and formalism" style="rounded=1;whiteSpace=wrap;html=1;" vertex="1" parent="1">
          <mxGeometry x="465" y="390" width="120" height="60" as="geometry" />
        </mxCell>
        <mxCell id="vts17N3uvWWT5DIk61w_-7" value="Turing machine analogue in temporal domain" style="rounded=1;whiteSpace=wrap;html=1;" vertex="1" parent="1">
          <mxGeometry x="715" y="380" width="120" height="60" as="geometry" />
        </mxCell>
        <mxCell id="vts17N3uvWWT5DIk61w_-8" value="Sleep sort" style="rounded=1;whiteSpace=wrap;html=1;" vertex="1" parent="1">
          <mxGeometry x="400" y="290" width="120" height="60" as="geometry" />
        </mxCell>
        <mxCell id="vts17N3uvWWT5DIk61w_-9" value="Asynchronous sparse computation" style="rounded=1;whiteSpace=wrap;html=1;" vertex="1" parent="1">
          <mxGeometry x="530" y="620" width="120" height="60" as="geometry" />
        </mxCell>
        <mxCell id="vts17N3uvWWT5DIk61w_-10" value="Spiking neural networks (SNNs)" style="rounded=1;whiteSpace=wrap;html=1;" vertex="1" parent="1">
          <mxGeometry x="645" y="730" width="120" height="60" as="geometry" />
        </mxCell>
        <mxCell id="vts17N3uvWWT5DIk61w_-11" value="Time delays instead of memory addresses" style="rounded=1;whiteSpace=wrap;html=1;" vertex="1" parent="1">
          <mxGeometry x="560" y="140" width="120" height="60" as="geometry" />
        </mxCell>
        <mxCell id="vts17N3uvWWT5DIk61w_-12" value="Static spatial relations, dynamic temporal relations of data" style="rounded=1;whiteSpace=wrap;html=1;" vertex="1" parent="1">
          <mxGeometry x="645" y="510" width="120" height="60" as="geometry" />
        </mxCell>
        <mxCell id="vts17N3uvWWT5DIk61w_-13" value="" style="shape=link;html=1;entryX=0.25;entryY=0;entryDx=0;entryDy=0;" edge="1" parent="1" source="vts17N3uvWWT5DIk61w_-2" target="vts17N3uvWWT5DIk61w_-1">
          <mxGeometry width="100" relative="1" as="geometry">
            <mxPoint x="375" y="560" as="sourcePoint" />
            <mxPoint x="475" y="560" as="targetPoint" />
          </mxGeometry>
        </mxCell>
        <mxCell id="vts17N3uvWWT5DIk61w_-14" value="" style="shape=link;html=1;entryX=0.5;entryY=1;entryDx=0;entryDy=0;exitX=0.5;exitY=0;exitDx=0;exitDy=0;" edge="1" parent="1" source="vts17N3uvWWT5DIk61w_-2" target="vts17N3uvWWT5DIk61w_-3">
          <mxGeometry width="100" relative="1" as="geometry">
            <mxPoint x="205" y="390" as="sourcePoint" />
            <mxPoint x="305" y="390" as="targetPoint" />
          </mxGeometry>
        </mxCell>
        <mxCell id="vts17N3uvWWT5DIk61w_-15" value="" style="shape=link;html=1;entryX=0;entryY=0.25;entryDx=0;entryDy=0;exitX=0.75;exitY=1;exitDx=0;exitDy=0;" edge="1" parent="1" source="vts17N3uvWWT5DIk61w_-5" target="vts17N3uvWWT5DIk61w_-2">
          <mxGeometry width="100" relative="1" as="geometry">
            <mxPoint x="115" y="510" as="sourcePoint" />
            <mxPoint x="215" y="510" as="targetPoint" />
          </mxGeometry>
        </mxCell>
        <mxCell id="vts17N3uvWWT5DIk61w_-16" value="Sleep and wait instead of poke and peek" style="rounded=1;whiteSpace=wrap;html=1;" vertex="1" parent="1">
          <mxGeometry x="570" y="290" width="120" height="60" as="geometry" />
        </mxCell>
        <mxCell id="vts17N3uvWWT5DIk61w_-17" value="" style="shape=link;html=1;exitX=0.5;exitY=1;exitDx=0;exitDy=0;entryX=0.5;entryY=0;entryDx=0;entryDy=0;" edge="1" parent="1" source="vts17N3uvWWT5DIk61w_-4" target="vts17N3uvWWT5DIk61w_-3">
          <mxGeometry width="100" relative="1" as="geometry">
            <mxPoint x="375" y="560" as="sourcePoint" />
            <mxPoint x="475" y="560" as="targetPoint" />
          </mxGeometry>
        </mxCell>
        <mxCell id="vts17N3uvWWT5DIk61w_-18" value="" style="shape=link;html=1;entryX=0.75;entryY=0;entryDx=0;entryDy=0;exitX=0.25;exitY=1;exitDx=0;exitDy=0;" edge="1" parent="1" source="vts17N3uvWWT5DIk61w_-6" target="vts17N3uvWWT5DIk61w_-1">
          <mxGeometry width="100" relative="1" as="geometry">
            <mxPoint x="405" y="490" as="sourcePoint" />
            <mxPoint x="445" y="550" as="targetPoint" />
          </mxGeometry>
        </mxCell>
        <mxCell id="vts17N3uvWWT5DIk61w_-19" value="" style="shape=link;html=1;entryX=0.75;entryY=0;entryDx=0;entryDy=0;" edge="1" parent="1" source="vts17N3uvWWT5DIk61w_-16" target="vts17N3uvWWT5DIk61w_-6">
          <mxGeometry width="100" relative="1" as="geometry">
            <mxPoint x="455" y="350" as="sourcePoint" />
            <mxPoint x="555" y="350" as="targetPoint" />
          </mxGeometry>
        </mxCell>
        <mxCell id="vts17N3uvWWT5DIk61w_-20" value="" style="shape=link;html=1;exitX=0.25;exitY=0;exitDx=0;exitDy=0;entryX=0.5;entryY=1;entryDx=0;entryDy=0;" edge="1" parent="1" source="vts17N3uvWWT5DIk61w_-6" target="vts17N3uvWWT5DIk61w_-8">
          <mxGeometry width="100" relative="1" as="geometry">
            <mxPoint x="545" y="360" as="sourcePoint" />
            <mxPoint x="645" y="360" as="targetPoint" />
          </mxGeometry>
        </mxCell>
        <mxCell id="vts17N3uvWWT5DIk61w_-21" value="" style="shape=link;html=1;exitX=0.75;exitY=1;exitDx=0;exitDy=0;entryX=0.25;entryY=0;entryDx=0;entryDy=0;" edge="1" parent="1" source="vts17N3uvWWT5DIk61w_-6" target="vts17N3uvWWT5DIk61w_-12">
          <mxGeometry width="100" relative="1" as="geometry">
            <mxPoint x="565" y="490" as="sourcePoint" />
            <mxPoint x="665" y="490" as="targetPoint" />
          </mxGeometry>
        </mxCell>
        <mxCell id="vts17N3uvWWT5DIk61w_-22" value="" style="shape=link;html=1;entryX=0.5;entryY=0;entryDx=0;entryDy=0;exitX=0.5;exitY=1;exitDx=0;exitDy=0;" edge="1" parent="1" source="vts17N3uvWWT5DIk61w_-11" target="vts17N3uvWWT5DIk61w_-16">
          <mxGeometry width="100" relative="1" as="geometry">
            <mxPoint x="335" y="240" as="sourcePoint" />
            <mxPoint x="435" y="240" as="targetPoint" />
          </mxGeometry>
        </mxCell>
        <mxCell id="vts17N3uvWWT5DIk61w_-23" value="" style="shape=link;html=1;exitX=1;exitY=0.5;exitDx=0;exitDy=0;entryX=0;entryY=0.5;entryDx=0;entryDy=0;" edge="1" parent="1" source="vts17N3uvWWT5DIk61w_-6" target="vts17N3uvWWT5DIk61w_-7">
          <mxGeometry width="100" relative="1" as="geometry">
            <mxPoint x="625" y="450" as="sourcePoint" />
            <mxPoint x="725" y="450" as="targetPoint" />
          </mxGeometry>
        </mxCell>
        <mxCell id="vts17N3uvWWT5DIk61w_-24" value="" style="shape=link;html=1;exitX=0.5;exitY=1;exitDx=0;exitDy=0;entryX=0.5;entryY=0;entryDx=0;entryDy=0;" edge="1" parent="1" source="vts17N3uvWWT5DIk61w_-6" target="vts17N3uvWWT5DIk61w_-9">
          <mxGeometry width="100" relative="1" as="geometry">
            <mxPoint x="395" y="690" as="sourcePoint" />
            <mxPoint x="495" y="690" as="targetPoint" />
          </mxGeometry>
        </mxCell>
        <mxCell id="vts17N3uvWWT5DIk61w_-25" value="" style="shape=link;html=1;exitX=0.5;exitY=1;exitDx=0;exitDy=0;entryX=0;entryY=0.25;entryDx=0;entryDy=0;" edge="1" parent="1" source="vts17N3uvWWT5DIk61w_-9" target="vts17N3uvWWT5DIk61w_-10">
          <mxGeometry width="100" relative="1" as="geometry">
            <mxPoint x="585" y="720" as="sourcePoint" />
            <mxPoint x="685" y="720" as="targetPoint" />
          </mxGeometry>
        </mxCell>
        <mxCell id="vts17N3uvWWT5DIk61w_-26" value="Dynamic hash" style="rounded=1;whiteSpace=wrap;html=1;" vertex="1" parent="1">
          <mxGeometry x="695" y="630" width="120" height="60" as="geometry" />
        </mxCell>
        <mxCell id="vts17N3uvWWT5DIk61w_-27" value="" style="shape=link;html=1;entryX=0;entryY=0.5;entryDx=0;entryDy=0;exitX=1;exitY=0.5;exitDx=0;exitDy=0;" edge="1" parent="1" source="vts17N3uvWWT5DIk61w_-9" target="vts17N3uvWWT5DIk61w_-26">
          <mxGeometry width="100" relative="1" as="geometry">
            <mxPoint x="515" y="730" as="sourcePoint" />
            <mxPoint x="615" y="730" as="targetPoint" />
          </mxGeometry>
        </mxCell>
        <mxCell id="vts17N3uvWWT5DIk61w_-28" value="Reservoir computing" style="rounded=1;whiteSpace=wrap;html=1;" vertex="1" parent="1">
          <mxGeometry x="465" y="730" width="120" height="60" as="geometry" />
        </mxCell>
        <mxCell id="vts17N3uvWWT5DIk61w_-29" value="Static patterns" style="rounded=1;whiteSpace=wrap;html=1;" vertex="1" parent="1">
          <mxGeometry x="595" y="830" width="120" height="60" as="geometry" />
        </mxCell>
        <mxCell id="vts17N3uvWWT5DIk61w_-30" value="" style="shape=link;html=1;entryX=0.25;entryY=1;entryDx=0;entryDy=0;exitX=0.5;exitY=0;exitDx=0;exitDy=0;" edge="1" parent="1" source="vts17N3uvWWT5DIk61w_-28" target="vts17N3uvWWT5DIk61w_-9">
          <mxGeometry width="100" relative="1" as="geometry">
            <mxPoint x="425" y="720" as="sourcePoint" />
            <mxPoint x="525" y="720" as="targetPoint" />
          </mxGeometry>
        </mxCell>
        <mxCell id="vts17N3uvWWT5DIk61w_-31" value="" style="shape=link;html=1;entryX=0;entryY=0.25;entryDx=0;entryDy=0;exitX=0.5;exitY=1;exitDx=0;exitDy=0;" edge="1" parent="1" source="vts17N3uvWWT5DIk61w_-28" target="vts17N3uvWWT5DIk61w_-29">
          <mxGeometry width="100" relative="1" as="geometry">
            <mxPoint x="525" y="840" as="sourcePoint" />
            <mxPoint x="625" y="840" as="targetPoint" />
          </mxGeometry>
        </mxCell>
        <mxCell id="vts17N3uvWWT5DIk61w_-32" value="" style="shape=link;html=1;entryX=0;entryY=0.75;entryDx=0;entryDy=0;exitX=1.017;exitY=0.617;exitDx=0;exitDy=0;exitPerimeter=0;" edge="1" parent="1" source="vts17N3uvWWT5DIk61w_-28" target="vts17N3uvWWT5DIk61w_-10">
          <mxGeometry width="100" relative="1" as="geometry">
            <mxPoint x="525" y="810" as="sourcePoint" />
            <mxPoint x="625" y="810" as="targetPoint" />
          </mxGeometry>
        </mxCell>
        <mxCell id="vts17N3uvWWT5DIk61w_-33" value="Sparse temporal vectors / representations" style="rounded=1;whiteSpace=wrap;html=1;" vertex="1" parent="1">
          <mxGeometry x="355" y="660" width="120" height="60" as="geometry" />
        </mxCell>
        <mxCell id="vts17N3uvWWT5DIk61w_-34" value="" style="shape=link;html=1;exitX=1;exitY=0.25;exitDx=0;exitDy=0;entryX=0;entryY=0.5;entryDx=0;entryDy=0;" edge="1" parent="1" source="vts17N3uvWWT5DIk61w_-33" target="vts17N3uvWWT5DIk61w_-9">
          <mxGeometry width="100" relative="1" as="geometry">
            <mxPoint x="325" y="680" as="sourcePoint" />
            <mxPoint x="425" y="680" as="targetPoint" />
          </mxGeometry>
        </mxCell>
        <mxCell id="vts17N3uvWWT5DIk61w_-35" value="Intuitions about computation" style="rounded=1;whiteSpace=wrap;html=1;" vertex="1" parent="1">
          <mxGeometry x="75" y="620" width="120" height="60" as="geometry" />
        </mxCell>
        <mxCell id="vts17N3uvWWT5DIk61w_-36" value="Human tendency to fix objects under work statically (cryogenic / vise)" style="rounded=1;whiteSpace=wrap;html=1;" vertex="1" parent="1">
          <mxGeometry x="240" y="790" width="120" height="60" as="geometry" />
        </mxCell>
        <mxCell id="vts17N3uvWWT5DIk61w_-37" value="Time complexity might be a wrong intuition" style="rounded=1;whiteSpace=wrap;html=1;" vertex="1" parent="1">
          <mxGeometry x="15" y="710" width="120" height="60" as="geometry" />
        </mxCell>
        <mxCell id="vts17N3uvWWT5DIk61w_-38" value="" style="shape=link;html=1;entryX=0.25;entryY=1;entryDx=0;entryDy=0;exitX=0.5;exitY=0;exitDx=0;exitDy=0;" edge="1" parent="1" source="vts17N3uvWWT5DIk61w_-37" target="vts17N3uvWWT5DIk61w_-35">
          <mxGeometry width="100" relative="1" as="geometry">
            <mxPoint x="35" y="590" as="sourcePoint" />
            <mxPoint x="135" y="590" as="targetPoint" />
          </mxGeometry>
        </mxCell>
        <mxCell id="vts17N3uvWWT5DIk61w_-39" value="" style="shape=link;html=1;entryX=0;entryY=0;entryDx=0;entryDy=0;exitX=0.75;exitY=1;exitDx=0;exitDy=0;" edge="1" parent="1" source="vts17N3uvWWT5DIk61w_-35" target="vts17N3uvWWT5DIk61w_-36">
          <mxGeometry width="100" relative="1" as="geometry">
            <mxPoint x="85" y="730" as="sourcePoint" />
            <mxPoint x="185" y="730" as="targetPoint" />
          </mxGeometry>
        </mxCell>
        <mxCell id="vts17N3uvWWT5DIk61w_-40" value="" style="shape=link;html=1;entryX=0;entryY=0.5;entryDx=0;entryDy=0;exitX=1;exitY=0.25;exitDx=0;exitDy=0;" edge="1" parent="1" source="vts17N3uvWWT5DIk61w_-35" target="vts17N3uvWWT5DIk61w_-1">
          <mxGeometry width="100" relative="1" as="geometry">
            <mxPoint x="195" y="600" as="sourcePoint" />
            <mxPoint x="295" y="600" as="targetPoint" />
          </mxGeometry>
        </mxCell>
        <mxCell id="vts17N3uvWWT5DIk61w_-41" value="Episodes vs still images" style="rounded=1;whiteSpace=wrap;html=1;" vertex="1" parent="1">
          <mxGeometry x="215" y="690" width="120" height="60" as="geometry" />
        </mxCell>
        <mxCell id="vts17N3uvWWT5DIk61w_-42" value="" style="shape=link;html=1;exitX=1;exitY=0.75;exitDx=0;exitDy=0;entryX=0.25;entryY=0;entryDx=0;entryDy=0;" edge="1" parent="1" source="vts17N3uvWWT5DIk61w_-35" target="vts17N3uvWWT5DIk61w_-41">
          <mxGeometry width="100" relative="1" as="geometry">
            <mxPoint x="165" y="680" as="sourcePoint" />
            <mxPoint x="265" y="680" as="targetPoint" />
          </mxGeometry>
        </mxCell>
        <mxCell id="vts17N3uvWWT5DIk61w_-43" value="Symphonic programming" style="rounded=1;whiteSpace=wrap;html=1;" vertex="1" parent="1">
          <mxGeometry x="55" y="510" width="120" height="60" as="geometry" />
        </mxCell>
        <mxCell id="vts17N3uvWWT5DIk61w_-44" value="" style="shape=link;html=1;exitX=1;exitY=0.5;exitDx=0;exitDy=0;entryX=0;entryY=0.75;entryDx=0;entryDy=0;" edge="1" parent="1" source="vts17N3uvWWT5DIk61w_-43" target="vts17N3uvWWT5DIk61w_-2">
          <mxGeometry width="100" relative="1" as="geometry">
            <mxPoint x="175" y="560" as="sourcePoint" />
            <mxPoint x="275" y="560" as="targetPoint" />
          </mxGeometry>
        </mxCell>
        <mxCell id="vts17N3uvWWT5DIk61w_-45" value="" style="shape=link;html=1;exitX=0.317;exitY=0.983;exitDx=0;exitDy=0;exitPerimeter=0;entryX=0.25;entryY=0;entryDx=0;entryDy=0;" edge="1" parent="1" source="vts17N3uvWWT5DIk61w_-5" target="vts17N3uvWWT5DIk61w_-43">
          <mxGeometry width="100" relative="1" as="geometry">
            <mxPoint x="55" y="450" as="sourcePoint" />
            <mxPoint x="155" y="450" as="targetPoint" />
          </mxGeometry>
        </mxCell>
        <mxCell id="vts17N3uvWWT5DIk61w_-46" value="" style="shape=link;html=1;entryX=0.25;entryY=0;entryDx=0;entryDy=0;exitX=0.5;exitY=1;exitDx=0;exitDy=0;" edge="1" parent="1" source="vts17N3uvWWT5DIk61w_-43" target="vts17N3uvWWT5DIk61w_-35">
          <mxGeometry width="100" relative="1" as="geometry">
            <mxPoint x="45" y="600" as="sourcePoint" />
            <mxPoint x="145" y="600" as="targetPoint" />
          </mxGeometry>
        </mxCell>
        <mxCell id="vts17N3uvWWT5DIk61w_-47" value="Causal relative time references instead of tape addressing" style="rounded=1;whiteSpace=wrap;html=1;" vertex="1" parent="1">
          <mxGeometry x="695" y="200" width="120" height="60" as="geometry" />
        </mxCell>
        <mxCell id="vts17N3uvWWT5DIk61w_-48" value="" style="shape=link;html=1;entryX=0.567;entryY=-0.05;entryDx=0;entryDy=0;entryPerimeter=0;exitX=0.5;exitY=1;exitDx=0;exitDy=0;" edge="1" parent="1" source="vts17N3uvWWT5DIk61w_-47" target="vts17N3uvWWT5DIk61w_-7">
          <mxGeometry width="100" relative="1" as="geometry">
            <mxPoint x="715" y="320" as="sourcePoint" />
            <mxPoint x="815" y="320" as="targetPoint" />
          </mxGeometry>
        </mxCell>
        <mxCell id="vts17N3uvWWT5DIk61w_-49" value="" style="shape=link;html=1;entryX=0.25;entryY=0;entryDx=0;entryDy=0;exitX=1;exitY=0.5;exitDx=0;exitDy=0;" edge="1" parent="1" source="vts17N3uvWWT5DIk61w_-11" target="vts17N3uvWWT5DIk61w_-47">
          <mxGeometry width="100" relative="1" as="geometry">
            <mxPoint x="575" y="250" as="sourcePoint" />
            <mxPoint x="675" y="250" as="targetPoint" />
          </mxGeometry>
        </mxCell>
        <mxCell id="vts17N3uvWWT5DIk61w_-50" value="Infinite addressing not limited by energy and material, only time" style="rounded=1;whiteSpace=wrap;html=1;" vertex="1" parent="1">
          <mxGeometry x="680" y="60" width="120" height="60" as="geometry" />
        </mxCell>
        <mxCell id="vts17N3uvWWT5DIk61w_-51" value="" style="shape=link;html=1;entryX=0.5;entryY=0;entryDx=0;entryDy=0;exitX=0.5;exitY=1;exitDx=0;exitDy=0;" edge="1" parent="1" source="vts17N3uvWWT5DIk61w_-50" target="vts17N3uvWWT5DIk61w_-47">
          <mxGeometry width="100" relative="1" as="geometry">
            <mxPoint x="660" y="140" as="sourcePoint" />
            <mxPoint x="760" y="140" as="targetPoint" />
          </mxGeometry>
        </mxCell>
        <mxCell id="vts17N3uvWWT5DIk61w_-52" value="Sleep is a powerful operation, not a NOP" style="rounded=1;whiteSpace=wrap;html=1;" vertex="1" parent="1">
          <mxGeometry x="400" y="180" width="120" height="60" as="geometry" />
        </mxCell>
        <mxCell id="vts17N3uvWWT5DIk61w_-53" value="" style="shape=link;html=1;entryX=0.75;entryY=0;entryDx=0;entryDy=0;exitX=0.5;exitY=1;exitDx=0;exitDy=0;" edge="1" parent="1" source="vts17N3uvWWT5DIk61w_-52" target="vts17N3uvWWT5DIk61w_-8">
          <mxGeometry width="100" relative="1" as="geometry">
            <mxPoint x="280" y="310" as="sourcePoint" />
            <mxPoint x="380" y="310" as="targetPoint" />
          </mxGeometry>
        </mxCell>
        <mxCell id="vts17N3uvWWT5DIk61w_-54" value="" style="shape=link;html=1;entryX=0.25;entryY=0;entryDx=0;entryDy=0;exitX=0.75;exitY=1;exitDx=0;exitDy=0;" edge="1" parent="1" source="vts17N3uvWWT5DIk61w_-52" target="vts17N3uvWWT5DIk61w_-16">
          <mxGeometry width="100" relative="1" as="geometry">
            <mxPoint x="470" y="270" as="sourcePoint" />
            <mxPoint x="570" y="270" as="targetPoint" />
          </mxGeometry>
        </mxCell>
        <mxCell id="vts17N3uvWWT5DIk61w_-55" value="Sort is an operation bringing similar entities close" style="rounded=1;whiteSpace=wrap;html=1;" vertex="1" parent="1">
          <mxGeometry x="215" y="120" width="120" height="60" as="geometry" />
        </mxCell>
        <mxCell id="vts17N3uvWWT5DIk61w_-56" value="" style="shape=link;html=1;entryX=0.133;entryY=-0.017;entryDx=0;entryDy=0;entryPerimeter=0;exitX=0.5;exitY=1;exitDx=0;exitDy=0;" edge="1" parent="1" source="vts17N3uvWWT5DIk61w_-55" target="vts17N3uvWWT5DIk61w_-8">
          <mxGeometry width="100" relative="1" as="geometry">
            <mxPoint x="260" y="220" as="sourcePoint" />
            <mxPoint x="360" y="220" as="targetPoint" />
          </mxGeometry>
        </mxCell>
        <mxCell id="vts17N3uvWWT5DIk61w_-57" value="Operational relationships in time, not in space" style="rounded=1;whiteSpace=wrap;html=1;" vertex="1" parent="1">
          <mxGeometry x="400" y="60" width="120" height="60" as="geometry" />
        </mxCell>
        <mxCell id="vts17N3uvWWT5DIk61w_-58" value="" style="shape=link;html=1;exitX=1;exitY=0.5;exitDx=0;exitDy=0;entryX=0;entryY=0.25;entryDx=0;entryDy=0;" edge="1" parent="1" source="vts17N3uvWWT5DIk61w_-57" target="vts17N3uvWWT5DIk61w_-11">
          <mxGeometry width="100" relative="1" as="geometry">
            <mxPoint x="550" y="80" as="sourcePoint" />
            <mxPoint x="650" y="80" as="targetPoint" />
          </mxGeometry>
        </mxCell>
        <mxCell id="vts17N3uvWWT5DIk61w_-59" value="" style="shape=link;html=1;exitX=1;exitY=0.5;exitDx=0;exitDy=0;entryX=0;entryY=0.5;entryDx=0;entryDy=0;" edge="1" parent="1" source="vts17N3uvWWT5DIk61w_-55" target="vts17N3uvWWT5DIk61w_-57">
          <mxGeometry width="100" relative="1" as="geometry">
            <mxPoint x="370" y="150" as="sourcePoint" />
            <mxPoint x="470" y="150" as="targetPoint" />
          </mxGeometry>
        </mxCell>
        <mxCell id="vts17N3uvWWT5DIk61w_-60" value="Information logistics" style="rounded=1;whiteSpace=wrap;html=1;" vertex="1" parent="1">
          <mxGeometry x="95" y="820" width="120" height="60" as="geometry" />
        </mxCell>
        <mxCell id="vts17N3uvWWT5DIk61w_-61" value="" style="shape=link;html=1;entryX=0.75;entryY=0;entryDx=0;entryDy=0;exitX=0.5;exitY=1;exitDx=0;exitDy=0;" edge="1" parent="1" source="vts17N3uvWWT5DIk61w_-35" target="vts17N3uvWWT5DIk61w_-60">
          <mxGeometry width="100" relative="1" as="geometry">
            <mxPoint x="130" y="750" as="sourcePoint" />
            <mxPoint x="230" y="750" as="targetPoint" />
          </mxGeometry>
        </mxCell>
      </root>
    </mxGraphModel>
  </diagram>
</mxfile>
